<?xml version="1.0" standalone="no"?>
<!DOCTYPE svg PUBLIC "-//W3C//DTD SVG 20010904//EN"
 "http://www.w3.org/TR/2001/REC-SVG-20010904/DTD/svg10.dtd">
<svg version="1.0" xmlns="http://www.w3.org/2000/svg"
 width="700.000000pt" height="700.000000pt" viewBox="0 0 700.000000 700.000000"
 preserveAspectRatio="xMidYMid meet">
<g transform="translate(0.000000,700.000000) scale(0.100000,-0.100000)"
fill="#000000" stroke="none">
<path d="M3280 6000 c-25 -4 -97 -19 -160 -32 -508 -107 -955 -470 -1163 -950
-79 -183 -112 -305 -137 -503 -34 -267 7 -580 112 -844 52 -132 178 -343 268
-451 225 -268 535 -464 853 -541 158 -38 255 -48 415 -42 301 10 577 95 830
255 l82 51 0 -472 0 -471 280 0 280 0 0 1250 0 1250 -280 0 -280 0 0 -76 0
-75 -37 30 c-266 212 -593 325 -932 320 -95 -1 -205 -10 -131 -9 160 2 367
-36 529 -96 516 -192 882 -630 982 -1174 19 -104 21 -332 4 -436 -15 -91 -51
-222 -82 -301 -178 -450 -568 -781 -1043 -883 -125 -27 -377 -27 -502 0 -250
54 -469 159 -654 314 -336 281 -517 673 -517 1116 0 443 181 835 517 1116 252
210 562 329 887 340 91 4 127 1 205 -15 283 -59 509 -169 713 -348 121 -106
243 -254 312 -378 32 -57 59 -106 61 -109 3 -2 0 40 -6 93 -21 207 -92 407
-207 583 -110 168 -214 276 -388 405 -161 118 -359 213 -550 265 -172 46 -373
64 -550 48z"/>
</g>
</svg> 